<svg width="220" height="51" viewBox="0 0 220 51" fill="none" xmlns="http://www.w3.org/2000/svg">
<path d="M23.1596 5.73117L14.4107 14.1563H29.2177L14.3674 28.4538H23.5693V37.1644L47.4217 14.1916H60.4835L54.5354 19.9228H49.8962L17.6179 50.9968V34.1849H0L14.8503 19.8907H0.0466257L20.6951 0H75.2206L69.2725 5.73117H23.1596Z" fill="#F75517"/>
<path d="M85.5115 14.1916V19.8939H67.4641V28.457H82.8405V34.1881H67.4641V51H60.4835V14.1916H85.5115Z" fill="white"/>
<path d="M88.1792 17.341C88.1792 16.4013 88.5056 15.6412 89.155 15.0607C89.8044 14.4803 90.6503 14.1916 91.6928 14.1916C92.7352 14.1916 93.5711 14.4803 94.2072 15.0607C94.84 15.6412 95.1597 16.4013 95.1597 17.341C95.1597 18.2807 94.8433 19.0408 94.2072 19.6213C93.5744 20.2018 92.7352 20.4904 91.6928 20.4904C90.6503 20.4904 89.8044 20.2018 89.155 19.6213C88.5022 19.0408 88.1792 18.2839 88.1792 17.341ZM95.1597 51H88.1792V28.457H95.1597V51Z" fill="white"/>
<path d="M116.478 48.8961C115.389 49.8069 114.343 50.3842 113.344 50.628C112.345 50.8717 111.482 50.9968 110.753 50.9968C108.465 50.9968 106.716 50.3137 105.517 48.9474C104.318 47.5812 103.719 45.814 103.719 43.6428V34.1817H100.502V28.4506H106.553C105.86 28.1715 105.218 27.7322 104.618 27.1356C104.019 26.5423 103.719 25.6475 103.719 24.4577V14.182H110.263V28.4474H116.478V34.1785H110.263V41.1733C110.263 42.2253 110.516 43.1617 111.026 43.9828C111.535 44.807 112.388 45.2175 113.59 45.2175C114.316 45.2175 114.906 45.1309 115.362 44.9545C115.815 44.7813 116.188 44.605 116.481 44.4286V48.8929L116.478 48.8961Z" fill="white"/>
<path d="M121.82 32.5172C121.82 29.7623 122.289 27.2607 123.225 25.0125C124.161 22.7643 125.453 20.8432 127.095 19.2429C128.737 17.6457 130.692 16.4013 132.953 15.5162C135.215 14.631 137.652 14.1884 140.27 14.1884C142.884 14.1884 145.322 14.6214 147.587 15.4905C149.848 16.3596 151.803 17.6008 153.445 19.2172C155.087 20.8336 156.379 22.7643 157.315 25.0125C158.251 27.2575 158.721 29.7591 158.721 32.5172C158.721 35.2754 158.251 37.793 157.315 40.0733C156.379 42.3535 155.09 44.3035 153.445 45.9199C151.803 47.5363 149.848 48.7871 147.587 49.6722C145.326 50.5574 142.888 51 140.27 51C137.652 51 135.215 50.5574 132.953 49.6722C130.692 48.7871 128.737 47.5267 127.095 45.8942C125.453 44.2618 124.161 42.3118 123.225 40.0476C122.289 37.7834 121.82 35.2754 121.82 32.5172ZM128.817 32.5172C128.817 34.4576 129.107 36.2343 129.693 37.8507C130.276 39.4671 131.078 40.8462 132.104 41.9847C133.13 43.1265 134.339 44.0116 135.734 44.6402C137.129 45.2688 138.641 45.5831 140.267 45.5831C141.892 45.5831 143.404 45.2688 144.799 44.6402C146.195 44.0116 147.407 43.1265 148.433 41.9847C149.459 40.8462 150.261 39.4671 150.844 37.8507C151.427 36.2343 151.72 34.4576 151.72 32.5172C151.72 30.5769 151.427 28.8162 150.844 27.2351C150.261 25.6539 149.455 24.2909 148.433 23.1524C147.407 22.0106 146.198 21.1351 144.799 20.5225C143.404 19.9099 141.892 19.6021 140.267 19.6021C138.641 19.6021 137.129 19.9164 135.734 20.545C134.339 21.1768 133.126 22.0491 132.104 23.1748C131.078 24.2973 130.276 25.6507 129.693 27.2351C129.11 28.8162 128.817 30.5801 128.817 32.5172Z" fill="white"/>
<path d="M189.354 38.537V51H182.646V40.4806C182.646 38.2067 182.163 36.5775 181.201 35.5961C180.238 34.6147 179.046 34.124 177.631 34.124C176.795 34.124 175.985 34.2747 175.203 34.5698C174.42 34.8681 173.721 35.269 173.105 35.7789C172.485 36.2856 171.986 36.8886 171.606 37.5909C171.226 38.2901 171.033 39.0438 171.033 39.8488V51H164.052V28.457H171.033V33.3928C171.796 31.8181 172.998 30.6026 174.633 29.743C176.268 28.8867 178.16 28.457 180.305 28.457C183.249 28.457 185.494 29.3133 187.039 31.0291C188.584 32.7449 189.357 35.2465 189.357 38.537H189.354Z" fill="white"/>
<path d="M219.997 38.537V51H213.289V40.4806C213.289 38.2067 212.806 36.5775 211.844 35.5961C210.881 34.6147 209.689 34.124 208.274 34.124C207.438 34.124 206.628 34.2747 205.846 34.5698C205.063 34.8681 204.364 35.269 203.748 35.7789C203.128 36.2856 202.629 36.8886 202.249 37.5909C201.869 38.2901 201.676 39.0438 201.676 39.8488V51H194.696V28.457H201.676V33.3928C202.439 31.8181 203.641 30.6026 205.276 29.743C206.911 28.8867 208.803 28.457 210.948 28.457C213.892 28.457 216.137 29.3133 217.682 31.0291C219.227 32.7449 220 35.2465 220 38.537H219.997Z" fill="white"/>
</svg>
